<svg width="100" height="13" xmlns="http://www.w3.org/2000/svg" xmlns:xlink="http://www.w3.org/1999/xlink" xml:space="preserve" overflow="hidden"><defs><clipPath id="clip0"><rect x="590" y="353" width="100" height="13"/></clipPath></defs><g clip-path="url(#clip0)" transform="translate(-590 -353)"><path d="M590 353C590.3 354.1 591.3 355.3 592.6 355.6L596.7 355.6 596.9 355.7 596.9 366 599.4 366 599.4 355.7 599.6 355.6 603.7 355.6C605.1 355.2 606 354.1 606.3 353L590 353ZM667.8 366C669.1 365.5 669.8 364.5 670 363.4L658.7 363.4 658.7 352.9 656.2 352.9 656.2 365.9 667.8 365.9ZM637.3 355.6 646.3 355.6C647.6 355.2 648.8 354.2 649 353L634.8 353 634.8 360.7 646.4 360.7 646.4 363.4 637.3 363.4C635.9 363.8 634.7 364.8 634.1 366L649 366 649 358.2 637.3 358.2 637.3 355.6ZM675.4 358.2 675.4 366 678 366 678 360.8 687.1 360.8 687.1 366 689.7 366 689.7 358.2M615.2 355.6 624.9 355.6C626.2 355.3 627.3 354.1 627.5 353L612.5 353C612.9 354.2 613.9 355.3 615.2 355.6M615.2 360.8 624.9 360.8C626.2 360.5 627.3 359.3 627.5 358.2L612.5 358.2C612.9 359.3 613.9 360.5 615.2 360.8M615.2 366 624.9 366C626.2 365.7 627.3 364.5 627.5 363.4L612.5 363.4C612.9 364.6 613.9 365.8 615.2 366M677.7 355.6 687.4 355.6C688.7 355.3 689.8 354.1 690 353L675 353C675.3 354.2 676.3 355.4 677.7 355.6" fill="#FFFFFF"/></g></svg>